<svg width="25" height="22" viewBox="0 0 25 22" fill="none" xmlns="http://www.w3.org/2000/svg">
<path d="M11.1864 18.644C11.0372 18.6453 10.8896 18.6135 10.7542 18.5508C10.5911 18.4785 10.4533 18.3593 10.3582 18.2084C10.2631 18.0575 10.2151 17.8817 10.2203 17.7034V11.0847C10.2151 10.9064 10.2631 10.7306 10.3582 10.5797C10.4533 10.4288 10.5911 10.3096 10.7542 10.2373C10.9248 10.1563 11.1148 10.1253 11.3023 10.1477C11.4897 10.1702 11.667 10.2454 11.8135 10.3644L15.8305 13.6949C15.939 13.7735 16.0274 13.8766 16.0883 13.996C16.1492 14.1153 16.181 14.2474 16.181 14.3813C16.181 14.5153 16.1492 14.6474 16.0883 14.7667C16.0274 14.886 15.939 14.9892 15.8305 15.0678L11.8135 18.4322C11.6349 18.5726 11.4136 18.6473 11.1864 18.644ZM11.5 11.7796V17.0339L14.6695 14.4068L11.5 11.7796Z" fill="#FF3A3A"/>
<path d="M24.3644 7.62714C15.2458 7.62714 1.43222 7.55087 0.72883 7.62714L0.677983 7.12714L0.43222 6.38985C0.559339 6.38985 0.847474 6.25426 24.3644 6.38985V7.62714Z" fill="#FF3A3A"/>
<path d="M12.9015 0.380581L10.9625 6.79956L12.1828 7.1682L14.1219 0.749225L12.9015 0.380581Z" fill="#FF3A3A"/>
<path d="M5.63175 0.371547L3.69269 6.79053L4.91303 7.15917L6.85209 0.740191L5.63175 0.371547Z" fill="#FF3A3A"/>
<path d="M20.1737 0.389858L18.2346 6.80884L19.455 7.17748L21.3941 0.758502L20.1737 0.389858Z" fill="#FF3A3A"/>
<path d="M24.2458 0.38142C23.9301 0.131201 23.5383 -0.00338453 23.1356 6.46857e-05H1.86441C1.37062 0.00229399 0.897697 0.199438 0.548535 0.5486C0.199373 0.897761 0.00222931 1.37069 0 1.86447V10.4662C0 10.6347 0.0669641 10.7964 0.186161 10.9156C0.305358 11.0348 0.467023 11.1018 0.635593 11.1018C0.804163 11.1018 0.965828 11.0348 1.08502 10.9156C1.20422 10.7964 1.27119 10.6347 1.27119 10.4662V1.86447C1.27119 1.70714 1.33369 1.55625 1.44494 1.445C1.55619 1.33375 1.70707 1.27125 1.86441 1.27125H23.1356C23.2929 1.27125 23.4438 1.33375 23.5551 1.445C23.6663 1.55625 23.7288 1.70714 23.7288 1.86447V19.7458C23.7288 19.9031 23.6663 20.054 23.5551 20.1653C23.4438 20.2765 23.2929 20.339 23.1356 20.339H1.86441C1.70707 20.339 1.55619 20.2765 1.44494 20.1653C1.33369 20.054 1.27119 19.9031 1.27119 19.7458V16.6272C1.26896 16.4601 1.20101 16.3006 1.08206 16.1832C0.963099 16.0658 0.802705 16 0.635593 16.0001C0.467023 16.0001 0.305358 16.067 0.186161 16.1862C0.0669641 16.3054 0 16.4671 0 16.6356V19.7458C0.00222931 20.2396 0.199373 20.7125 0.548535 21.0617C0.897697 21.4109 1.37062 21.608 1.86441 21.6102H23.1356C23.6294 21.608 24.1023 21.4109 24.4515 21.0617C24.8006 20.7125 24.9978 20.2396 25 19.7458V1.86447C25.001 1.57514 24.9332 1.28972 24.802 1.03183C24.6709 0.773932 24.4802 0.550979 24.2458 0.38142Z" fill="#FF3A3A"/>
</svg>
