<svg width="465" height="661" viewBox="0 0 465 661" fill="none" xmlns="http://www.w3.org/2000/svg">
<rect width="465" height="661" fill="#575859"/>
<path d="M175.295 448.128C179.674 440.953 182.848 435.119 186.624 429.738C189.567 425.553 189.544 423.497 184.586 420.842C141.91 398.005 119.946 352.88 127.453 303.881C135.121 253.447 179.836 213.512 229.254 213.009C296.558 212.149 346.277 269.924 337.728 338.747C332.19 382.796 297.392 421.01 254.878 430.336C230.551 435.645 206.225 441.623 182.083 447.291C180.415 447.649 178.793 447.697 175.295 448.128ZM300.913 373.087C300.945 368.126 299.542 363.267 296.884 359.134C294.226 355 290.435 351.778 285.993 349.88C281.552 347.982 276.664 347.494 271.953 348.479C267.242 349.464 262.922 351.876 259.547 355.408C256.171 358.94 253.893 363.431 253.003 368.307C252.113 373.182 252.652 378.221 254.551 382.779C256.45 387.336 259.623 391.206 263.663 393.893C267.704 396.579 272.43 397.961 277.235 397.861C280.369 397.849 283.469 397.197 286.357 395.943C289.246 394.69 291.866 392.859 294.066 390.557C296.267 388.254 298.005 385.526 299.18 382.527C300.355 379.529 300.944 376.321 300.913 373.087ZM235.533 388.415C235.569 383.478 234.186 378.64 231.559 374.514C228.932 370.387 225.178 367.158 220.772 365.233C216.367 363.309 211.507 362.776 206.809 363.702C202.11 364.628 197.782 366.972 194.374 370.437C190.965 373.901 188.629 378.331 187.66 383.167C186.69 388.002 187.132 393.025 188.929 397.601C190.725 402.178 193.796 406.101 197.754 408.876C201.711 411.651 206.376 413.152 211.16 413.19C214.338 413.221 217.49 412.605 220.437 411.376C223.384 410.147 226.066 408.329 228.331 406.027C230.595 403.725 232.397 400.985 233.633 397.962C234.869 394.94 235.514 391.696 235.533 388.415ZM161.834 272.889C161.816 277.835 163.219 282.676 165.866 286.799C168.512 290.923 172.284 294.144 176.703 296.055C181.123 297.966 185.993 298.482 190.697 297.538C195.4 296.593 199.727 294.23 203.13 290.748C206.533 287.265 208.86 282.82 209.815 277.973C210.771 273.126 210.313 268.095 208.499 263.517C206.686 258.939 203.598 255.019 199.626 252.251C195.654 249.484 190.976 247.995 186.184 247.971C179.775 248.014 173.637 250.646 169.086 255.304C164.534 259.962 161.931 266.274 161.834 272.889ZM192.092 337.695C192.021 331.08 189.408 324.765 184.826 320.139C180.244 315.513 174.07 312.955 167.661 313.028C161.252 313.101 155.134 315.799 150.652 320.528C146.171 325.257 143.692 331.63 143.763 338.245C143.798 341.52 144.458 344.756 145.704 347.769C146.951 350.781 148.76 353.51 151.029 355.801C153.298 358.091 155.981 359.898 158.926 361.118C161.872 362.338 165.021 362.948 168.194 362.912C171.367 362.875 174.503 362.195 177.421 360.908C180.339 359.621 182.984 357.753 185.203 355.412C187.422 353.07 189.173 350.3 190.355 347.26C191.537 344.221 192.127 340.97 192.092 337.695ZM275.498 257.56C275.578 251.042 273.15 244.757 268.745 240.086C264.341 235.414 258.32 232.737 252.005 232.643C245.584 232.643 239.426 235.275 234.886 239.962C230.345 244.648 227.794 251.005 227.794 257.632C227.794 264.26 230.345 270.616 234.886 275.303C239.426 279.989 245.584 282.622 252.005 282.622C258.341 282.496 264.372 279.792 268.785 275.098C273.198 270.404 275.636 264.101 275.567 257.56H275.498ZM272.44 307.779C272.453 312.698 273.877 317.503 276.532 321.588C279.187 325.673 282.954 328.856 287.359 330.735C291.763 332.614 296.608 333.106 301.282 332.148C305.957 331.19 310.252 328.825 313.627 325.352C317.002 321.878 319.305 317.452 320.246 312.629C321.188 307.807 320.726 302.805 318.918 298.254C317.11 293.703 314.037 289.805 310.087 287.053C306.137 284.301 301.486 282.818 296.72 282.789C293.535 282.741 290.374 283.352 287.422 284.584C284.469 285.817 281.786 287.648 279.529 289.967C277.273 292.287 275.49 295.05 274.284 298.093C273.078 301.135 272.475 304.396 272.509 307.683L272.44 307.779Z" fill="#FF3A3A"/>
</svg>
