<svg width="39" height="39" viewBox="0 0 39 39" fill="none" xmlns="http://www.w3.org/2000/svg">
<path d="M19.5 39C15.6433 39 11.8731 37.8564 8.66639 35.7137C5.45963 33.571 2.96027 30.5255 1.48436 26.9623C0.008449 23.3992 -0.377716 19.4784 0.374696 15.6958C1.12711 11.9131 2.9843 8.43855 5.71143 5.71143C8.43855 2.9843 11.9131 1.12711 15.6958 0.374696C19.4784 -0.377716 23.3992 0.008449 26.9623 1.48436C30.5255 2.96027 33.571 5.45963 35.7137 8.66639C37.8564 11.8731 39 15.6433 39 19.5C39 22.0608 38.4956 24.5965 37.5157 26.9623C36.5357 29.3282 35.0993 31.4779 33.2886 33.2886C31.4779 35.0993 29.3282 36.5357 26.9623 37.5157C24.5965 38.4956 22.0608 39 19.5 39ZM19.5 2.85367C16.2077 2.85367 12.9893 3.82996 10.2518 5.65908C7.51432 7.48821 5.38072 10.088 4.1208 13.1297C2.86087 16.1715 2.53122 19.5185 3.17352 22.7476C3.81583 25.9766 5.40124 28.9427 7.72927 31.2708C10.0573 33.5988 13.0234 35.1842 16.2525 35.8265C19.4815 36.4688 22.8286 36.1391 25.8703 34.8792C28.912 33.6193 31.5118 31.4857 33.3409 28.7482C35.1701 26.0107 36.1464 22.7923 36.1464 19.5C36.1464 15.0851 34.3926 10.8511 31.2708 7.72927C28.149 4.60747 23.9149 2.85367 19.5 2.85367Z" fill="white"/>
<path d="M19.0244 24.2561C18.6712 24.2514 18.3322 24.1158 18.0732 23.8756L11.4146 17.6927C11.2472 17.5771 11.1064 17.4271 11.0017 17.2527C10.897 17.0782 10.8308 16.8834 10.8076 16.6813C10.7844 16.4792 10.8046 16.2745 10.867 16.0808C10.9294 15.8872 11.0325 15.7091 11.1693 15.5586C11.3062 15.408 11.4736 15.2885 11.6605 15.208C11.8473 15.1275 12.0492 15.0879 12.2526 15.0918C12.456 15.0957 12.6562 15.1431 12.8398 15.2308C13.0234 15.3184 13.1861 15.4443 13.3171 15.6L18.8484 20.7176L27.4094 9.59305C27.6402 9.29283 27.9809 9.09662 28.3564 9.04756C28.7319 8.9985 29.1115 9.10062 29.4117 9.33146C29.7119 9.5623 29.9081 9.90294 29.9572 10.2784C30.0063 10.6539 29.9041 11.0336 29.6733 11.3338L20.1611 23.6996C20.0399 23.8585 19.8866 23.9901 19.7113 24.086C19.536 24.1818 19.3425 24.2398 19.1433 24.2561H19.0244Z" fill="white"/>
<path d="M19.5 5.70732C19.1216 5.70732 18.7587 5.55699 18.4911 5.28941C18.2235 5.02183 18.0732 4.65891 18.0732 4.28049V1.42683C18.0732 1.04841 18.2235 0.685491 18.4911 0.417909C18.7587 0.150326 19.1216 0 19.5 0C19.8784 0 20.2414 0.150326 20.5089 0.417909C20.7765 0.685491 20.9268 1.04841 20.9268 1.42683V4.28049C20.9268 4.65891 20.7765 5.02183 20.5089 5.28941C20.2414 5.55699 19.8784 5.70732 19.5 5.70732Z" fill="white"/>
<path d="M37.5732 20.9268H34.7195C34.3411 20.9268 33.9782 20.7765 33.7106 20.5089C33.443 20.2413 33.2927 19.8784 33.2927 19.4999C33.2927 19.1215 33.443 18.7586 33.7106 18.491C33.9782 18.2234 34.3411 18.0731 34.7195 18.0731H37.5732C37.9516 18.0731 38.3145 18.2234 38.5821 18.491C38.8497 18.7586 39 19.1215 39 19.4999C39 19.8784 38.8497 20.2413 38.5821 20.5089C38.3145 20.7765 37.9516 20.9268 37.5732 20.9268Z" fill="white"/>
<path d="M19.5 39C19.1216 39 18.7587 38.8497 18.4911 38.5821C18.2235 38.3146 18.0732 37.9516 18.0732 37.5732V34.7196C18.0732 34.3411 18.2235 33.9782 18.4911 33.7106C18.7587 33.443 19.1216 33.2927 19.5 33.2927C19.8784 33.2927 20.2414 33.443 20.5089 33.7106C20.7765 33.9782 20.9268 34.3411 20.9268 34.7196V37.5732C20.9268 37.9516 20.7765 38.3146 20.5089 38.5821C20.2414 38.8497 19.8784 39 19.5 39Z" fill="white"/>
<path d="M4.2805 20.9268H1.42684C1.04843 20.9268 0.685506 20.7765 0.417924 20.5089C0.150341 20.2413 1.52588e-05 19.8784 1.52588e-05 19.4999C1.52588e-05 19.1215 0.150341 18.7586 0.417924 18.491C0.685506 18.2234 1.04843 18.0731 1.42684 18.0731H4.2805C4.65892 18.0731 5.02184 18.2234 5.28943 18.491C5.55701 18.7586 5.70733 19.1215 5.70733 19.4999C5.70733 19.8784 5.55701 20.2413 5.28943 20.5089C5.02184 20.7765 4.65892 20.9268 4.2805 20.9268Z" fill="white"/>
</svg>
