<svg width="26" height="26" viewBox="0 0 26 26" fill="white" xmlns="http://www.w3.org/2000/svg">
<path d="M9.58454 0.80835C7.38503 0.80835 5.18257 1.6401 3.50954 3.30341C0.163487 6.63003 0.163486 12.047 3.50954 15.3736C6.64471 18.4906 11.6245 18.687 14.9928 15.9629H15.002L23.4941 24.4148C23.6611 24.5808 23.8876 24.6741 24.1238 24.6741C24.36 24.6741 24.5865 24.5808 24.7535 24.4148C24.9205 24.2487 25.0143 24.0235 25.0143 23.7887C25.0143 23.5539 24.9205 23.3287 24.7535 23.1627L16.2522 14.7107C18.9836 11.3622 18.7916 6.41727 15.6595 3.30341C13.9865 1.6401 11.784 0.80835 9.58454 0.80835ZM9.58454 2.56686C11.3258 2.56686 13.0668 3.23001 14.4001 4.55555C17.0482 7.18825 17.067 11.4206 14.4556 14.0754C14.4496 14.0816 14.4432 14.0878 14.4371 14.0937C14.4113 14.1138 14.3865 14.1353 14.363 14.1582C11.6941 16.7764 7.42453 16.7615 4.76899 14.1213C2.10242 11.4702 2.10242 7.20647 4.76899 4.55539C6.10228 3.22985 7.8433 2.5667 9.58454 2.5667V2.56686Z" fill="white" stroke="white"/>
</svg>
