<svg width="35" height="45" viewBox="0 0 35 45" fill="none" xmlns="http://www.w3.org/2000/svg">
<path d="M6.5068 41.8982L6.50664 41.8982L6.50847 41.9079C6.74768 43.1809 7.56056 44.3004 8.95074 44.3004H25.7028C27.0922 44.3004 27.9169 43.1189 28.1395 41.9752L28.1397 41.9752L28.1415 41.9635L32.4259 14.1204C33.3744 13.3126 33.9543 12.1223 33.9543 10.842C33.9548 7.91166 31.3194 6.21137 29.0082 6.56975C28.3002 4.40548 26.1217 3.31998 24.1542 3.67743C22.9468 -0.0780253 17.5143 -0.416787 16.0463 3.43721C15.0335 3.14645 13.9628 3.24961 13.04 3.68685C10.7706 1.47123 6.90915 2.39636 5.94184 5.48158C3.11132 5.28271 0.7 7.56699 0.7 10.3854C0.7 11.7279 1.2498 12.9719 2.19145 13.8835L6.5068 41.8982ZM6.77685 7.10344L7.13468 7.21198L7.16307 6.83913C7.29967 5.0451 8.64949 3.92574 10.0472 3.92574C10.9181 3.92574 11.8502 4.37661 12.5472 5.36512L12.7355 5.63217L12.9855 5.42179C13.8557 4.68959 14.7677 4.65984 15.4783 4.81581C15.8362 4.89435 16.1404 5.02002 16.3552 5.12649C16.4623 5.17953 16.5462 5.22729 16.6023 5.26111C16.6303 5.278 16.6513 5.29136 16.6648 5.3001L16.6791 5.30959L16.6816 5.31128L16.6818 5.31142L16.6819 5.31146L16.682 5.31152L16.6821 5.31163L17.1014 5.60312L17.1514 5.09433C17.3448 3.12871 18.6805 2.16188 20.062 2.16188C20.7842 2.16188 21.4806 2.41761 22.0072 2.91717C22.5316 3.4146 22.9052 4.17052 22.9534 5.20364L22.9746 5.65859L23.3842 5.45947C24.7352 4.80274 25.7988 5.03266 26.5416 5.60812C27.3049 6.19938 27.7586 7.17876 27.8087 8.05175L27.8329 8.47364L28.2232 8.31163C29.5733 7.7512 30.6296 8.00714 31.3504 8.57057C32.0881 9.14727 32.4952 10.0617 32.4952 10.842V10.8422C32.4956 11.7896 32.0153 12.6724 31.2397 13.2016H3.64776C2.71205 12.5525 2.15871 11.5157 2.15871 10.3854C2.15871 9.44377 2.63563 8.41204 3.45765 7.7213C4.26962 7.03903 5.41643 6.69077 6.77685 7.10344ZM8.95074 42.8412C8.46082 42.8412 8.10368 42.4413 7.95251 41.7336L3.78736 14.6603H8.42773L9.25862 24.6936C7.7418 25.8033 6.90496 27.2683 6.97057 28.7843C7.03677 30.3139 8.01727 31.8005 9.94089 32.9443L10.7603 42.8412H8.95074ZM16.5976 22.4784C14.3292 22.5681 12.2764 23.066 10.6531 23.8639L9.89149 14.6603H16.5976V22.4784ZM16.5976 42.8412H12.2236L11.4652 33.6836C12.9391 34.2708 14.6918 34.6349 16.5976 34.7101V42.8412ZM8.42513 28.5942C8.42513 27.3847 9.33937 26.22 10.9661 25.34C12.5807 24.4666 14.8302 23.9165 17.3272 23.9165C19.8243 23.9165 22.0739 24.4666 23.6884 25.34C25.3151 26.22 26.2292 27.3847 26.2292 28.5942C26.2292 29.8035 25.315 30.9683 23.6882 31.8483C22.0736 32.7218 19.8241 33.2719 17.3272 33.2719C14.8303 33.2719 12.5807 32.7218 10.9661 31.8483C9.33936 30.9683 8.42513 29.8035 8.42513 28.5942ZM24.0013 23.8639C22.3779 23.066 20.3248 22.5681 18.0567 22.4784V14.6603H24.7629L24.0013 23.8639ZM23.1888 33.6837L22.4303 42.8412H18.0567V34.7101C19.9628 34.6349 21.7152 34.2708 23.1888 33.6837ZM30.8662 14.6603L26.6971 41.7928C26.5319 42.44 26.1937 42.8412 25.7032 42.8412H23.8941L24.7135 32.9443C26.5994 31.8225 27.5954 30.35 27.6813 28.8235C27.7667 27.3059 26.9472 25.8278 25.3966 24.6936L26.2266 14.6603H30.8662Z" fill="white" stroke="white" stroke-width="0.6"/>
</svg>
