<svg width="111" height="43" viewBox="0 0 111 43" fill="none" xmlns="http://www.w3.org/2000/svg">
<path d="M48.1462 42.8866C48.9586 41.6045 49.5475 40.5618 50.2482 39.6002C50.7941 38.8523 50.7898 38.4848 49.8699 38.0104C41.9519 33.9291 37.8768 25.8647 39.2695 17.108C40.6924 8.09488 48.9887 0.957899 58.1576 0.868153C70.6451 0.714301 79.8699 11.0394 78.2837 23.339C77.2564 31.211 70.7998 38.0403 62.9119 39.707C58.3983 40.6558 53.8848 41.7242 49.4056 42.737C49.0961 42.8011 48.7952 42.8097 48.1462 42.8866ZM71.4532 29.4759C71.459 28.5893 71.1987 27.7211 70.7056 26.9823C70.2125 26.2435 69.509 25.6677 68.685 25.3285C67.861 24.9894 66.954 24.9022 66.0799 25.0782C65.2058 25.2542 64.4044 25.6854 63.7781 26.3166C63.1518 26.9478 62.729 27.7503 62.5639 28.6216C62.3988 29.493 62.4988 30.3934 62.8512 31.208C63.2035 32.0225 63.7922 32.714 64.5419 33.1942C65.2917 33.6743 66.1684 33.9212 67.06 33.9034C67.6414 33.9012 68.2166 33.7847 68.7525 33.5607C69.2884 33.3367 69.7745 33.0095 70.1828 32.598C70.5911 32.1865 70.9135 31.6989 71.1315 31.1631C71.3496 30.6273 71.4589 30.0539 71.4532 29.4759ZM59.3225 32.2153C59.3293 31.3329 59.0728 30.4683 58.5853 29.7309C58.0978 28.9935 57.4014 28.4163 56.584 28.0724C55.7666 27.7285 54.865 27.6333 53.9931 27.7988C53.1213 27.9643 52.3184 28.3831 51.686 29.0023C51.0536 29.6215 50.6201 30.4132 50.4403 31.2773C50.2604 32.1414 50.3424 33.0392 50.6757 33.857C51.0091 34.6748 51.5789 35.376 52.3131 35.8719C53.0473 36.3677 53.9129 36.636 54.8004 36.6428C55.3901 36.6485 55.975 36.5383 56.5218 36.3186C57.0685 36.099 57.5662 35.7741 57.9863 35.3628C58.4065 34.9514 58.7408 34.4616 58.9701 33.9215C59.1994 33.3814 59.3192 32.8016 59.3225 32.2153ZM45.6487 11.5694C45.6453 12.4533 45.9056 13.3184 46.3966 14.0553C46.8876 14.7922 47.5874 15.3678 48.4075 15.7094C49.2275 16.051 50.131 16.1432 51.0037 15.9743C51.8765 15.8055 52.6793 15.3832 53.3107 14.7609C53.9421 14.1385 54.3737 13.3441 54.551 12.4779C54.7283 11.6117 54.6433 10.7127 54.3068 9.8945C53.9703 9.07631 53.3974 8.37568 52.6604 7.88117C51.9235 7.38665 51.0556 7.12045 50.1665 7.11622C48.9774 7.12391 47.8385 7.59434 46.9941 8.42673C46.1496 9.25911 45.6666 10.3872 45.6487 11.5694ZM51.2626 23.1509C51.2495 21.9687 50.7646 20.8402 49.9145 20.0135C49.0644 19.1867 47.9188 18.7296 46.7298 18.7427C45.5407 18.7557 44.4055 19.2378 43.574 20.083C42.7424 20.9281 42.2826 22.067 42.2957 23.2492C42.3022 23.8346 42.4246 24.4129 42.6559 24.9513C42.8873 25.4896 43.223 25.9773 43.6439 26.3867C44.0648 26.796 44.5627 27.1189 45.1091 27.337C45.6556 27.555 46.2399 27.6639 46.8286 27.6575C47.4174 27.651 47.9991 27.5293 48.5406 27.2994C49.0821 27.0694 49.5727 26.7357 49.9844 26.3172C50.3962 25.8987 50.721 25.4037 50.9403 24.8604C51.1596 24.3172 51.2691 23.7363 51.2626 23.1509ZM66.7376 8.82995C66.7526 7.66507 66.302 6.5419 65.4848 5.707C64.6676 4.8721 63.5505 4.3937 62.3789 4.37681C61.1875 4.37681 60.0449 4.84733 59.2025 5.68486C58.3601 6.52239 57.8868 7.65833 57.8868 8.84277C57.8868 10.0272 58.3601 11.1632 59.2025 12.0007C60.0449 12.8382 61.1875 13.3087 62.3789 13.3087C63.5544 13.2863 64.6733 12.803 65.4921 11.9641C66.3109 11.1253 66.7632 9.99878 66.7505 8.82995H66.7376ZM66.1702 17.8046C66.1728 18.6837 66.437 19.5424 66.9296 20.2724C67.4222 21.0025 68.1211 21.5713 68.9383 21.9071C69.7555 22.2429 70.6544 22.3308 71.5217 22.1596C72.389 21.9884 73.1859 21.5658 73.8121 20.9451C74.4382 20.3243 74.8656 19.5332 75.0402 18.6715C75.2149 17.8097 75.1292 16.9158 74.7937 16.1024C74.4583 15.289 73.8882 14.5925 73.1553 14.1007C72.4223 13.6089 71.5594 13.3437 70.6752 13.3386C70.0843 13.3301 69.4977 13.4391 68.95 13.6595C68.4022 13.8798 67.9043 14.2069 67.4857 14.6215C67.0671 15.0361 66.7361 15.5298 66.5124 16.0736C66.2887 16.6173 66.1768 17.2001 66.1831 17.7875L66.1702 17.8046Z" fill="#FF3A3A"/>
<path d="M32.82 14.44C32.82 16.88 32.26 19.12 31.14 21.16C30.02 23.16 28.3 24.78 25.98 26.02C23.66 27.26 20.78 27.88 17.34 27.88H10.98V43H0.72V0.879999H17.34C20.7 0.879999 23.54 1.46 25.86 2.62C28.18 3.78 29.92 5.38 31.08 7.42C32.24 9.46 32.82 11.8 32.82 14.44ZM16.56 19.72C18.52 19.72 19.98 19.26 20.94 18.34C21.9 17.42 22.38 16.12 22.38 14.44C22.38 12.76 21.9 11.46 20.94 10.54C19.98 9.62 18.52 9.16 16.56 9.16H10.98V19.72H16.56Z" fill="#FCFCFC"/>
<path d="M96.98 35.08H110.42V43H86.72V0.879999H96.98V35.08Z" fill="#FCFCFC"/>
</svg>
